General
Complete name                    : Red Dust.mkv
Format                           : Matroska
File size                        : 1.58 GiB
Duration                         : 1h 46mn
Overall bit rate                 : 2 129 Kbps


Video
ID                               : 1
Format                           : AVC
Codec ID                         : V_MPEG4/ISO/AVC
Duration                         : 1h 46mn
Bit rate                         : 1 639 Kbps
Nominal bit rate                 : 1 656 Kbps
Width                            : 718 pixels
Height                           : 416 pixels
Display aspect ratio             : 2.454
Frame rate                       : 25.000 fps
Resolution                       : 8 bits
Colorimetry                      : 4:2:0
Scan type                        : Progressive
Bits/(Pixel*Frame)               : 0.220
Stream size                      : 1.22 GiB (77%)
Writing library                  : x264 core 79


Audio
ID                               : 2
Format                           : AC-3
Format/Info                      : Audio Coding 3
Codec ID                         : A_AC3
Duration                         : 1h 46mn
Bit rate mode                    : Constant
Bit rate                         : 448 Kbps
Channel(s)                       : 6 channels
Channel positions                : Front: L C R, Surround: L R, LFE
Sampling rate                    : 48.0 KHz
Stream size                      : 340 MiB (21%)

Text #1                               
Language                         : Danish

Text #2
Language                         : Finnish

Text #3
Language                         : Icelandic

Text #4
Language                         : Norwegian

Text #5
Language                         : Swedish



